<mxfile host="app.diagrams.net" modified="2024-04-22T01:43:57.140Z" agent="Mozilla/5.0 (Windows NT 10.0; Win64; x64) AppleWebKit/537.36 (KHTML, like Gecko) Chrome/123.0.0.0 Safari/537.36" etag="FYyViTZxQpVQq32j8-jV" version="24.2.7" type="github" pages="2">
  <diagram name="a" id="dT93WXWRJul1XLMJWpAd">
    <mxGraphModel dx="1434" dy="738" grid="0" gridSize="10" guides="1" tooltips="1" connect="1" arrows="1" fold="1" page="0" pageScale="1" pageWidth="850" pageHeight="1100" math="0" shadow="0">
      <root>
        <mxCell id="0" />
        <mxCell id="1" parent="0" />
        <mxCell id="bNCW-cvnJg0663MmSnWi-1" value="&lt;i&gt;&lt;font color=&quot;#ff0000&quot; style=&quot;font-size: 23px;&quot;&gt;y&lt;/font&gt;&lt;/i&gt;" style="ellipse;whiteSpace=wrap;html=1;" parent="1" vertex="1">
          <mxGeometry x="140" y="160" width="85" height="85" as="geometry" />
        </mxCell>
      </root>
    </mxGraphModel>
  </diagram>
  <diagram name="b" id="zE1zgwnU4LyuTDg8-L_s">
    <mxGraphModel dx="1834" dy="738" grid="0" gridSize="10" guides="1" tooltips="1" connect="1" arrows="1" fold="1" page="0" pageScale="1" pageWidth="850" pageHeight="1100" math="1" shadow="0">
      <root>
        <mxCell id="OKK2Jnh9vL5SxdfJIj-6-0" />
        <mxCell id="OKK2Jnh9vL5SxdfJIj-6-1" parent="OKK2Jnh9vL5SxdfJIj-6-0" />
        <mxCell id="OKK2Jnh9vL5SxdfJIj-6-2" value="&lt;i&gt;&lt;font color=&quot;#ff0000&quot; style=&quot;font-size: 23px;&quot;&gt;y&lt;/font&gt;&lt;/i&gt;" style="ellipse;whiteSpace=wrap;html=1;" vertex="1" parent="OKK2Jnh9vL5SxdfJIj-6-1">
          <mxGeometry x="-20" y="445" width="85" height="85" as="geometry" />
        </mxCell>
        <mxCell id="JFP3jNbQ8aWLwT7Mlo92-0" value="&lt;i&gt;&lt;font color=&quot;#ff0000&quot; style=&quot;font-size: 23px;&quot;&gt;X&lt;/font&gt;&lt;/i&gt;" style="ellipse;whiteSpace=wrap;html=1;" vertex="1" parent="OKK2Jnh9vL5SxdfJIj-6-1">
          <mxGeometry x="-16" y="240" width="85" height="85" as="geometry" />
        </mxCell>
        <mxCell id="JFP3jNbQ8aWLwT7Mlo92-1" value="&lt;font color=&quot;#ff0000&quot;&gt;&lt;span style=&quot;font-size: 23px;&quot;&gt;&lt;i&gt;u&lt;/i&gt;&lt;/span&gt;&lt;/font&gt;" style="ellipse;whiteSpace=wrap;html=1;" vertex="1" parent="OKK2Jnh9vL5SxdfJIj-6-1">
          <mxGeometry x="119" y="325" width="85" height="85" as="geometry" />
        </mxCell>
        <mxCell id="JFP3jNbQ8aWLwT7Mlo92-2" value="" style="endArrow=classic;html=1;rounded=0;exitX=0.459;exitY=1.082;exitDx=0;exitDy=0;entryX=0.5;entryY=0;entryDx=0;entryDy=0;exitPerimeter=0;" edge="1" parent="OKK2Jnh9vL5SxdfJIj-6-1" source="JFP3jNbQ8aWLwT7Mlo92-0" target="OKK2Jnh9vL5SxdfJIj-6-2">
          <mxGeometry width="50" height="50" relative="1" as="geometry">
            <mxPoint x="314" y="475" as="sourcePoint" />
            <mxPoint x="364" y="425" as="targetPoint" />
          </mxGeometry>
        </mxCell>
        <mxCell id="JFP3jNbQ8aWLwT7Mlo92-3" value="" style="endArrow=classic;html=1;rounded=0;exitX=0;exitY=1;exitDx=0;exitDy=0;entryX=1;entryY=0;entryDx=0;entryDy=0;" edge="1" parent="OKK2Jnh9vL5SxdfJIj-6-1" source="JFP3jNbQ8aWLwT7Mlo92-1" target="OKK2Jnh9vL5SxdfJIj-6-2">
          <mxGeometry width="50" height="50" relative="1" as="geometry">
            <mxPoint x="314" y="475" as="sourcePoint" />
            <mxPoint x="364" y="425" as="targetPoint" />
          </mxGeometry>
        </mxCell>
        <mxCell id="JFP3jNbQ8aWLwT7Mlo92-5" value="$$\beta$$" style="text;html=1;align=right;verticalAlign=middle;resizable=0;points=[];autosize=1;strokeColor=none;fillColor=none;fontSize=20;" vertex="1" parent="OKK2Jnh9vL5SxdfJIj-6-1">
          <mxGeometry x="-98" y="360" width="107" height="36" as="geometry" />
        </mxCell>
      </root>
    </mxGraphModel>
  </diagram>
</mxfile>
